# xmcd CD database file
#
# Track frame offsets:
#	150
#	11697
#	31097
#	48454
#	60738
#	75788
#	91466
#	102878
#	117401
#	133571
#	145530
#	163206
#	174452
#	188461
#	205579
#	221611
#	243350
#
# Disc length: 3355 seconds
#
# Revision: 1
# Processed by: cddbd v1.5.1PL0 Copyright (c) Steve Scherf et al.
# Submitted via: CDex 1.51
#
DISCID=d70d1911
DTITLE=Jesse Crown (nv) - Timeless
DYEAR=2000
DGENRE=Country
TTITLE0=Jesse Crown - Folsom Prison Blues
TTITLE1=Jesse Crown - Looking for Love
TTITLE2=Jesse Crown - You´re my best Friend
TTITLE3=Jesse Crown - Ring of Fire
TTITLE4=Jesse Crown - Thank God for the Radio
TTITLE5=Jesse Crown - Grüne Gras dahaam
TTITLE6=Jesse Crown - Mamas don´t let your Babys
TTITLE7=Jesse Crown - Tak me Home Country Roads
TTITLE8=Jesse Crown - My Way
TTITLE9=Jesse Crown - Some broken Hearts
TTITLE10=Jesse Crown - Help me make it trough the Night
TTITLE11=Jesse Crown - One Night
TTITLE12=Jesse Crown - Green Green Grass of Home
TTITLE13=Jesse Crown - Pina Colada
TTITLE14=Jesse Crown - Love me Tender
TTITLE15=Jesse Crown - Unchained Melodie
TTITLE16=Jesse Crown - Wild in the Country
EXTD=YEAR: 2000
EXTT0=
EXTT1=
EXTT2=
EXTT3=
EXTT4=
EXTT5=
EXTT6=
EXTT7=
EXTT8=
EXTT9=
EXTT10=
EXTT11=
EXTT12=
EXTT13=
EXTT14=
EXTT15=
EXTT16=
PLAYORDER=
